# xmcd
# 
# Track frame offsets:
#     150
#     23625
#     43868
#     57071
#     69004
#     87529
#     101130
#     116599
#     138273
#     160070
#     188952
# 
# Disc length: 2810
# 
# Revision: 4
# Processed by: cddbd v1.5.2PL0 Copyright (c) Steve Scherf et al.
# Submitted via: fre:ac v1.0.17
# 
DISCID=8d0af80b
DTITLE=田中　彬博 - TANAKA AKIHIRO - harukazeharmonics
DYEAR=2007
DGENRE=Acoustic
TTITLE0=Garden - 中庭
TTITLE1=Good morning train
TTITLE2=Etude of The Sun - 太陽のエチュード
TTITLE3=Gakuen Tengoku - 学園天国
TTITLE4=Call
TTITLE5=The Evening Calm - 夕凪
TTITLE6=Red DUENDE - 赤のDUENDE
TTITLE7=Rain in March - 三月の雨
TTITLE8=Silver Wings - 君と夢の間の銀の翼
TTITLE9=Flower
TTITLE10=The Morning Good-bye - 別れの朝に
EXTD=YEAR: 2007
EXTT0=
EXTT1=
EXTT2=
EXTT3=
EXTT4=
EXTT5=
EXTT6=
EXTT7=
EXTT8=
EXTT9=
EXTT10=
PLAYORDER=
